<svg width="16" height="16" viewBox="0 0 16 16" fill="none" xmlns="http://www.w3.org/2000/svg">
<g clip-path="url(#clip0_154_88)">
<g clip-path="url(#clip1_154_88)">
<mask id="mask0_154_88" style="mask-type:luminance" maskUnits="userSpaceOnUse" x="0" y="0" width="16" height="16">
<path d="M16 0H0V16H16V0Z" fill="white"/>
</mask>
<g mask="url(#mask0_154_88)">
<path fill-rule="evenodd" clip-rule="evenodd" d="M8.13958 0.000974593C8.6483 0.00985538 9.15642 0.067272 9.65698 0.173253C10.7711 0.409149 11.8221 0.880205 12.7396 1.55493C13.657 2.22965 14.4199 3.09248 14.977 4.08572C15.5342 5.07897 15.873 6.17972 15.9705 7.31441C16.0582 8.33425 15.9493 9.36035 15.6508 10.3372L15.6496 10.3413L15.6488 10.344C15.0718 12.2267 13.8207 13.8304 12.1351 14.8482C10.9186 15.5827 9.53745 15.9748 8.13567 15.9987C8.10561 15.9996 8.07555 15.9999 8.04548 15.9997C7.53458 16.0026 7.02136 15.9565 6.51277 15.8603C4.57798 15.4943 2.84616 14.4275 1.64883 12.8642C0.451507 11.3009 -0.12721 9.35097 0.023469 7.38763L0.0235744 7.38629C0.0237098 7.38404 0.0238644 7.38182 0.0240383 7.37957C0.112323 6.24416 0.442016 5.14066 0.991066 4.14288C1.54012 3.14513 2.29587 2.27608 3.2078 1.59388C4.1197 0.911686 5.16677 0.432052 6.27895 0.187059C6.85936 0.0592076 7.45052 -0.0032054 8.04148 -0.000136252C8.07417 -0.00044325 8.10686 -7.35068e-05 8.13958 0.000974593ZM14.8096 10.4088L14.8091 10.4105L14.8082 10.4132C14.6408 10.8854 14.4257 11.3363 14.1678 11.7593C13.8475 11.2434 13.2772 10.7742 12.5052 10.3953C12.8119 10.0337 12.9969 9.56557 12.9969 9.05426V6.98016C12.9969 6.45719 12.8034 5.97947 12.484 5.61463C13.2668 5.23394 13.8445 4.76082 14.1678 4.24029C14.213 4.31457 14.257 4.38972 14.2997 4.46572C14.8028 5.36254 15.1086 6.35644 15.1967 7.38094C15.2848 8.40544 15.1531 9.43697 14.8105 10.4065L14.8096 10.4088ZM11.2868 4.93788C11.1125 4.21535 10.879 3.55635 10.5986 2.98469C10.2495 2.27301 9.84405 1.72963 9.42308 1.36118C9.09583 1.07474 8.77267 0.904877 8.46598 0.827349V4.90604H10.9228C11.047 4.90604 11.1686 4.91694 11.2868 4.93788ZM7.68927 4.90604V0.820527C7.4752 0.87079 7.25573 0.965383 7.03258 1.11097C6.61523 1.38323 6.19477 1.82925 5.81452 2.4595C5.43545 3.08777 5.11667 3.86594 4.8863 4.75535C4.8728 4.80744 4.85964 4.85985 4.8468 4.91247C4.90117 4.90822 4.95614 4.90604 5.01161 4.90604H7.68927ZM3.4702 5.59232C2.7107 5.21563 2.14903 4.75088 1.83202 4.24041C1.77654 4.33144 1.72303 4.42376 1.67154 4.51735C1.1758 5.41822 0.878113 6.4146 0.7984 7.43979C0.798272 7.44188 0.798053 7.44494 0.797891 7.44707C0.681503 8.9636 1.04709 10.4713 1.83204 11.7591C2.14606 11.2535 2.70014 10.7927 3.44877 10.4179C3.13036 10.0533 2.93748 9.57632 2.93748 9.05426V6.98016C2.93748 6.44647 3.13905 5.95985 3.4702 5.59232ZM4.85555 11.1226C5.0282 11.8212 5.25639 12.4593 5.52889 13.0148C5.87795 13.7265 6.28342 14.2699 6.70439 14.6383C7.04155 14.9334 7.37433 15.1048 7.68927 15.1789V11.1284H5.01161C4.95911 11.1284 4.90705 11.1264 4.85555 11.1226ZM8.46598 11.1284V15.1722C8.67123 15.1204 8.88136 15.0278 9.09489 14.8885C9.51223 14.6163 9.9327 14.1703 10.313 13.54C10.692 12.9117 11.0108 12.1336 11.2412 11.2441C11.2537 11.1957 11.266 11.147 11.278 11.0981C11.1625 11.118 11.0439 11.1284 10.9228 11.1284H8.46598ZM13.6434 12.4585C13.6471 12.4702 13.6512 12.4816 13.6559 12.4928C13.1253 13.1607 12.4761 13.735 11.7336 14.1833C11.2844 14.4545 10.8103 14.6741 10.3203 14.8403C10.5539 14.5799 10.7741 14.2791 10.978 13.9412C11.4025 13.2377 11.7474 12.3874 11.993 11.4389C12.0258 11.3124 12.0567 11.1845 12.0858 11.0553C13.0378 11.5048 13.5106 12.0339 13.6434 12.4585ZM4.83158 13.3568C5.13017 13.9657 5.47742 14.4855 5.86073 14.899C4.47802 14.4703 3.25023 13.6338 2.34339 12.4918C2.34884 12.4794 2.3537 12.4666 2.35792 12.4533C2.49837 12.0122 3.00515 11.4603 4.02983 11.002C4.22014 11.8661 4.49133 12.6632 4.83158 13.3568ZM5.86067 1.10051C5.07458 1.34426 4.33445 1.72103 3.67305 2.21581C3.17483 2.58853 2.72823 3.02302 2.34336 3.50766C2.34883 3.5201 2.3537 3.53297 2.35792 3.54626C2.49837 3.98732 3.00515 4.53929 4.0298 4.99757C4.06227 4.85022 4.09714 4.70447 4.13442 4.5606C4.38011 3.61207 4.72502 2.76176 5.14948 2.05826C5.36883 1.6947 5.6072 1.37402 5.86067 1.10051ZM12.0858 4.94429C13.0378 4.49472 13.5106 3.96563 13.6434 3.54104C13.6471 3.52935 13.6512 3.51794 13.6559 3.50685C13.2589 3.00708 12.7963 2.56079 12.2794 2.18064C11.6813 1.74076 11.0203 1.39676 10.3204 1.15932C10.6825 1.56297 11.0113 2.06237 11.2959 2.64265C11.6291 3.32204 11.8961 4.10069 12.0858 4.94429ZM6.94139 9.82713L6.62511 8.97951H5.17442L4.85814 9.82713C4.80564 9.96779 4.64908 10.0393 4.50839 9.98679C4.36773 9.93429 4.29627 9.77772 4.34873 9.63707L5.54789 6.42332C5.66942 6.09763 6.13008 6.09763 6.25161 6.42332L7.45077 9.63707C7.50327 9.77772 7.43177 9.93429 7.29111 9.98679C7.15045 10.0393 6.99386 9.96779 6.94139 9.82713ZM5.89977 7.03557L6.42223 8.43582H5.37727L5.89977 7.03557ZM8.43483 6.91029C8.26324 6.91029 8.12414 7.04938 8.12414 7.22097C8.12414 7.39257 8.26324 7.53166 8.43483 7.53166H8.57211C8.58611 7.56019 8.60373 7.59563 8.62467 7.6366C8.68177 7.74838 8.76389 7.90241 8.8643 8.07194C9.01539 8.327 9.21792 8.63463 9.44795 8.88401C9.25245 9.0021 9.02127 9.10966 8.8062 9.19769C8.65177 9.26091 8.51245 9.31132 8.41183 9.34591C8.36161 9.36316 8.32127 9.37641 8.29373 9.38522C8.27998 9.38966 8.26945 9.39297 8.26255 9.39513C8.25908 9.39619 8.25489 9.39747 8.25489 9.39747L8.2532 9.39801C8.10955 9.44154 8.02805 9.59335 8.07155 9.73704C8.11505 9.88072 8.2668 9.96194 8.41048 9.91844L8.33173 9.65826C8.41048 9.91844 8.41048 9.91844 8.41048 9.91844L8.41173 9.91807L8.41445 9.91722C8.41677 9.91654 8.42005 9.9155 8.42423 9.91422C8.43258 9.9116 8.44464 9.90782 8.45995 9.90288C8.49061 9.89304 8.53449 9.87866 8.58855 9.86007C8.69652 9.82297 8.84589 9.76891 9.01214 9.70088C9.28008 9.59122 9.61123 9.43757 9.88148 9.25101C10.1401 9.42007 10.4438 9.56 10.6929 9.66194C10.8591 9.72997 11.0085 9.78404 11.1165 9.82116C11.1705 9.83972 11.2144 9.85413 11.245 9.86397C11.2604 9.86888 11.2724 9.87269 11.2808 9.87529C11.285 9.8766 11.2882 9.8776 11.2905 9.87832L11.2933 9.87913L11.2943 9.87947C11.2943 9.87947 11.2945 9.8795 11.3733 9.61935L11.2943 9.87947C11.438 9.923 11.59 9.84179 11.6335 9.6981C11.677 9.55444 11.5958 9.40272 11.4521 9.35919L11.4501 9.35857L11.4466 9.35747L11.4425 9.35619C11.4355 9.35404 11.425 9.35072 11.4113 9.34632C11.3837 9.33747 11.3434 9.32422 11.2932 9.30697C11.1925 9.27241 11.0532 9.22197 10.8988 9.15879C10.7003 9.07754 10.488 8.9796 10.3028 8.87216C10.5139 8.63266 10.6997 8.34888 10.8407 8.11088C10.9411 7.94135 11.0232 7.78729 11.0803 7.67554C11.1089 7.61957 11.1313 7.57397 11.1467 7.5421L11.148 7.53951L11.1518 7.53166H11.3395C11.511 7.53166 11.6501 7.39257 11.6501 7.22097C11.6501 7.04938 11.511 6.91029 11.3395 6.91029H8.43483ZM10.5423 7.53166C10.4955 7.61969 10.4383 7.72335 10.3729 7.83379C10.2279 8.07854 10.0525 8.33966 9.87058 8.5401C9.67586 8.33535 9.48664 8.05579 9.33208 7.79488C9.27608 7.70032 9.22608 7.61072 9.18355 7.53166H10.5423ZM9.54705 5.81744C9.67802 5.74407 9.8437 5.79076 9.91708 5.92172L10.1756 6.38304C10.249 6.51401 10.2023 6.67966 10.0713 6.75307C9.94036 6.82644 9.77467 6.77979 9.7013 6.64879L9.4428 6.18751C9.36939 6.05651 9.41608 5.89085 9.54705 5.81744Z" fill="black"/>
</g>
</g>
</g>
<defs>
<clipPath id="clip0_154_88">
<rect width="16" height="16" fill="white"/>
</clipPath>
<clipPath id="clip1_154_88">
<rect width="16" height="16" fill="white"/>
</clipPath>
</defs>
</svg>
